<svg width="13" height="13" viewBox="0 0 72 72" fill="none" xmlns="http://www.w3.org/2000/svg">
  <path d="M35.5109 0C35.0096 0 34.6337 0.459546 34.6337 0.96093V13.8284C34.6337 14.3298 35.0096 14.7893 35.5109 14.7893C36.0958 14.7893 36.4718 14.3298 36.4718 13.8284V0.96093C36.4718 0.459546 36.0958 0 35.5109 0ZM17.7972 4.72089C17.2542 5.01333 17.2123 5.59823 17.463 6.05777L23.8968 17.1706C24.1892 17.6719 24.6906 17.8809 25.1919 17.5466C25.6097 17.296 25.7768 16.7111 25.4843 16.2515L19.0506 5.13868C18.7582 4.67913 18.2568 4.51203 17.7972 4.72089ZM53.35 4.76264C52.8486 4.51203 52.3473 4.67913 52.0549 5.13868L45.6211 16.2515C45.3705 16.7111 45.454 17.3377 45.9554 17.5884C46.4149 17.8809 46.9162 17.6719 47.2087 17.1706L53.6424 6.05777C53.8931 5.59823 53.8096 5.05509 53.35 4.76264ZM66.3846 17.7973C66.0921 17.2541 65.5072 17.2124 65.0477 17.4631L53.9348 23.855C53.4335 24.1475 53.2247 24.6905 53.5589 25.1919C53.8096 25.6097 54.3945 25.735 54.854 25.4844L65.9668 19.0506C66.4264 18.7581 66.5935 18.2568 66.3846 17.7973ZM4.76261 17.7555C4.512 18.2568 4.6791 18.7581 5.13864 19.0506L16.2515 25.4844C16.711 25.735 17.3377 25.6515 17.5884 25.1501C17.8808 24.6905 17.6719 24.1892 17.2123 23.8968L6.05774 17.4631C5.59819 17.2124 5.05505 17.296 4.76261 17.7555ZM71.1055 35.511C71.1055 35.0097 70.6459 34.6336 70.1446 34.6336H57.2771C56.7758 34.6336 56.3162 35.0097 56.3162 35.511C56.3162 36.0958 56.7758 36.4719 57.2771 36.4719H70.1446C70.6459 36.4719 71.1055 36.0958 71.1055 35.511ZM0 35.511C0 36.0958 0.459554 36.4719 0.960879 36.4719H13.8283C14.3297 36.4719 14.7893 36.0958 14.7893 35.511C14.7893 35.0097 14.3297 34.6336 13.8283 34.6336H0.960879C0.459554 34.6336 0 35.0097 0 35.511ZM66.3846 53.3082C66.6353 52.8904 66.4264 52.3474 65.9668 52.0549L54.854 45.6211C54.3945 45.3287 53.7677 45.454 53.5589 45.9136C53.2664 46.4567 53.4335 46.9163 53.9348 47.2087L65.0477 53.6424C65.5072 53.8931 66.0504 53.8095 66.3846 53.3082ZM4.76261 53.35C5.05505 53.8095 5.59819 53.8931 6.05774 53.6424L17.2123 47.2087C17.6719 46.9163 17.8808 46.415 17.5884 45.9554C17.3377 45.454 16.711 45.3287 16.2515 45.6211L5.13864 52.0549C4.6791 52.3474 4.512 52.8487 4.76261 53.35ZM53.35 66.3428C53.8096 66.0504 53.8931 65.5073 53.6424 65.0477L47.2504 53.8931C46.9581 53.4336 46.4149 53.2246 45.9554 53.5171C45.454 53.7678 45.3705 54.3944 45.6211 54.8122L52.0549 65.9668C52.3473 66.4264 52.8486 66.5935 53.35 66.3428ZM17.7972 66.3428C18.2568 66.5935 18.7582 66.4264 19.0506 65.9668L25.4843 54.854C25.7768 54.3944 25.6514 53.7678 25.1919 53.5589C24.6488 53.2665 24.1892 53.4336 23.8968 53.8931L17.463 65.0477C17.2123 65.5073 17.2959 66.0504 17.7972 66.3428ZM35.5109 71.1055C36.0958 71.1055 36.4718 70.6459 36.4718 70.1446V57.2771C36.4718 56.7757 36.0958 56.3162 35.5109 56.3162C35.0096 56.3162 34.6337 56.7757 34.6337 57.2771V70.1446C34.6337 70.6459 35.0096 71.1055 35.5109 71.1055Z" fill="black"/>
</svg>